<?xml version="1.0" encoding="utf-8"?>
<!-- Generator: Adobe Illustrator 23.0.1, SVG Export Plug-In . SVG Version: 6.00 Build 0)  -->
<svg version="1.1" id="Layer_1" xmlns="http://www.w3.org/2000/svg" xmlns:xlink="http://www.w3.org/1999/xlink" x="0px" y="0px"
	 viewBox="0 0 616 616" style="enable-background:new 0 0 616 616;" xml:space="preserve">
<style type="text/css">
	.st0{fill:#231F20;}
	.st1{fill:#FFCC00;}
	.st2{fill:#FFFFFF;}
</style>
<g>
	<rect class="st0" width="616" height="616"/>
	<g transform="matrix( 1.125, 0, 0, 1.125, -785.35,-1222.75) ">
		<g>
			<g id="Layer0_0_MEMBER_0_MEMBER_0_FILL">
				<path class="st1" d="M1053.7,1346.6h-75.2l-83.1,159l12.1,51H993v50.2h60.6v-50.3h28.6v-56.2h-28.5V1346.6 M993,1500.3h-34.6
					l34.6-74.6V1500.3 M749.4,1360.4v64.6c15-13.7,31.5-20.6,49.3-20.6c21,0,31.5,10.1,31.5,30.6c0,13.7-4.9,27.3-14.7,40.8
					c-21.8,30.3-45.1,58.2-69.9,83.7l10.2,47.2h140.9v-60.2h-67.3c7.4-7.8,15.1-17.8,23.2-29.5c1.2-1.6,7.6-11.7,19.2-29.7
					c14.5-22.9,21.8-44.8,21.8-65.7c0-22.4-8-41.2-24.3-56.2c-15-13.7-34.7-20.6-59.2-20.6C788.6,1344.7,768.4,1349.9,749.4,1360.4
					 M1219,1401.5v-54.9h-150.8v60.2h80.3l-67.1,199.8h69.5L1219,1401.5z"/>
			</g>
		</g>
	</g>
	<g>
		<g transform="matrix( 0.286529541015625, 0, 0, 0.286529541015625, 871,479.85) ">
			<g>
				<g id="Layer0_0_MEMBER_1_MEMBER_0_MEMBER_0_FILL">
					<path class="st1" d="M-2524.4-1059.5c2.8-7.1,4.2-14.5,4.2-22.2c0-12.6-3.6-24.1-10.8-34.5c-7.1-10.1-16.4-17.5-27.8-21.9
						c-0.7-16.2-6.8-29.9-18.5-41.2c-11.8-11.3-25.8-17-42.1-17c-6.8,0-13.4,1.1-20,3.5c-1.7-1.7-3.5-3.3-5.2-4.7
						c-5.7-4.6-12-8-19-10.6c-6.9-2.4-14.1-3.6-21.4-3.6c-12.8,0-24.5,3.5-35.2,10.5c-10.4,6.8-18.2,15.8-23.4,27.1
						c-14.8,2.1-27.2,8.8-37.1,20.2c-10,11.4-15.1,24.8-15.1,39.9c0,6.1,0.9,11.9,2.6,17.7c-3.3,4.2-5.9,8.9-7.6,14
						c-1.8,5.2-2.7,10.6-2.8,16.1c0,7.4,1.6,14.4,4.8,20.9c3,6.4,7.3,11.9,12.7,16.5l26.3,199.3h195.9l28-211.5
						C-2531-1046.4-2527.2-1052.6-2524.4-1059.5 M-2550.9-1064.2c-3,5.2-7.2,9.3-12.5,12.5h-209.2c-3.5-4.2-5.1-9.1-5.1-14.5
						c0-5.5,1.7-10.5,5.3-14.7c3.5-4.2,7.9-6.8,13.2-7.9c-3.4-3.2-6-7-7.9-11.3c-1.9-4.4-2.9-9.1-2.9-13.9c0-9.6,3.4-17.7,10.2-24.5
						s15-10.2,24.5-10.2c4,0,7.9,0.7,11.6,2v-0.4c0-10.6,3.7-19.7,11.3-27.3c7.5-7.5,16.6-11.3,27.3-11.3c9,0,17.1,2.9,24.1,8.5
						c6.9,5.5,11.4,12.6,13.4,21.2c3.2-4.4,7.3-7.9,12.1-10.4c5-2.6,10.3-3.9,15.9-3.9c9.6,0,17.7,3.4,24.6,10.1
						c6.8,6.8,10.2,15,10.2,24.6c0,3.9-0.6,7.7-1.9,11.3c-1.2,3.5-2.9,6.8-5.2,9.8c3.5-1.2,7.2-1.7,11-1.7c9.6,0,17.7,3.4,24.5,10.2
						c6.8,6.8,10.1,15,10.1,24.5C-2546.1-1075.4-2547.8-1069.6-2550.9-1064.2 M-2759.6-1025.8h39.3l13.9,170.3h-30.7L-2759.6-1025.8
						 M-2694.2-1025.8h64.7l-13.9,170.3h-36.8L-2694.2-1025.8 M-2586.7-855.4h-30.6l13.9-170.3h39.3L-2586.7-855.4z"/>
				</g>
			</g>
		</g>
		<g transform="matrix( 0.286529541015625, 0, 0, 0.286529541015625, 871,479.85) ">
			<g>
				<g id="Layer0_0_MEMBER_1_MEMBER_0_MEMBER_1_FILL">
					<path class="st1" d="M-2704-1088.5c-2.3,0-4.3,0.8-6,2.5c-1.6,1.6-2.5,3.6-2.5,6c0,2.3,0.8,4.3,2.5,6c1.6,1.6,3.6,2.5,6,2.5
						c2.3,0,4.3-0.8,6-2.5c1.6-1.6,2.5-3.6,2.5-6c0-2.3-0.8-4.3-2.5-6C-2699.7-1087.7-2701.7-1088.5-2704-1088.5z"/>
				</g>
			</g>
		</g>
		<g transform="matrix( 0.286529541015625, 0, 0, 0.286529541015625, 871,479.85) ">
			<g>
				<g id="Layer0_0_MEMBER_1_MEMBER_0_MEMBER_2_FILL">
					<path class="st1" d="M-2664.7-1071.7c-2.3,0-4.3,0.8-6,2.5s-2.5,3.6-2.5,6c0,2.3,0.8,4.3,2.5,6s3.6,2.5,6,2.5
						c2.3,0,4.3-0.8,6-2.5c1.6-1.6,2.5-3.6,2.5-6c0-2.3-0.8-4.3-2.5-6C-2660.4-1070.9-2662.4-1071.7-2664.7-1071.7z"/>
				</g>
			</g>
		</g>
		<g transform="matrix( 0.286529541015625, 0, 0, 0.286529541015625, 871,479.85) ">
			<g>
				<g id="Layer0_0_MEMBER_1_MEMBER_0_MEMBER_3_FILL">
					<path class="st1" d="M-2636.7-1099.7c-2.3,0-4.3,0.8-6,2.5s-2.5,3.6-2.5,6c0,2.3,0.8,4.3,2.5,6s3.6,2.5,6,2.5s4.3-0.8,6-2.5
						s2.5-3.6,2.5-6c0-2.3-0.8-4.3-2.5-6C-2632.3-1098.9-2634.3-1099.7-2636.7-1099.7z"/>
				</g>
			</g>
		</g>
		<g transform="matrix( 2.25, 0, 0, 2.25, -2113.2,-1136.3) ">
			<g>
				<g id="Layer0_0_MEMBER_2_FILL">
					<path class="st2" d="M1096.8,555.4h-6.1v70.1h6.1V555.4 M1114,565.7c3.6-4.1,8.5-6.2,14.5-6.2c6.1,0,10.9,2,14.5,6.1
						c3.4,3.9,5.2,8.9,5.2,15v44.8h6v-44.7c0-6.1,1.7-11.1,5.2-15c3.6-4,8.5-6.1,14.5-6.1s10.8,2.1,14.5,6.2
						c3.4,3.9,5.2,8.8,5.2,14.9v44.8h6.1v-42.9c0-8.5-2.2-15.2-6.6-20.4c-4.6-5.4-11.1-8.1-19.5-8.1c-9.5,0-17,4.5-22.4,13.6
						c-5.2-9.1-12.7-13.6-22.3-13.6c-8.4,0-14.9,2.7-19.4,8.1c-4.3,5.1-6.5,11.8-6.5,20.4v42.9h6v-44.8
						C1108.9,574.5,1110.6,569.6,1114,565.7 M963.8,609.6c-0.1-0.1-0.2-0.3-0.4-0.4v8c7,6.3,15,9.5,24.3,9.5
						c10.2,0,18.7-3.5,25.5-10.5c2-2.1,3.6-4.3,5-6.6c3.3-5.6,4.9-12,4.9-19.2c0-10.4-3.3-19-9.8-25.9c-6.6-7-15-10.4-25.4-10.4
						c-13.4,0-23.6,5.8-30.6,17.4c-3.3,5.4-4.9,13-4.9,23V657h6v-63c0-9.7,2.4-17.7,7-24c5.2-7,12.6-10.4,22.1-10.4
						c8.6,0,15.7,3,21.2,9c5.4,5.8,8,13.1,8,21.7c0,7.6-2,14-6.1,19.3c-0.6,0.8-1.2,1.6-2,2.3c-5.5,6-12.6,9-21.2,9
						C978.7,620.9,970.7,617.1,963.8,609.6 M1033.9,521.7h-6v103.7h6v-38.1c0-7.6,2.1-14,6.2-19.2c4.4-5.6,10.4-8.4,17.8-8.4
						c6.6,0,11.9,2.4,15.9,7.3c3.6,4.5,5.4,10.2,5.4,16.9v41.5h6v-40.4c0-9.1-2.2-16.4-6.7-21.9c-4.8-6.1-11.7-9.2-20.6-9.2
						c-10.3,0-18.3,4.7-24,13.9L1033.9,521.7L1033.9,521.7z"/>
				</g>
			</g>
		</g>
	</g>
</g>
</svg>
