<svg id="Layer_1" data-name="Layer 1" xmlns="http://www.w3.org/2000/svg" viewBox="0 0 875.8 203.5"><defs><style>.cls-1{fill:#fc0;}.cls-2{fill:#fff;}</style></defs><g id="Layer0_0_MEMBER_0_MEMBER_0_MEMBER_0_FILL" data-name="Layer0 0 MEMBER 0 MEMBER 0 MEMBER 0 FILL"><path class="cls-1" d="M402.5,16.27H355.3L303.11,110.8,310.69,141h53.74v29.85H402.5V141h18V107.7h-18V16.27M364.37,107.7H342.61l21.76-44.36V107.7M211.3,24.43V62.82c9.45-8.15,19.81-12.23,30.95-12.23,13.21,0,19.81,6,19.81,18.19,0,8.16-3.11,16.25-9.26,24.28a452.84,452.84,0,0,1-43.9,49.73l6.41,28h88.51V135H261.54a138.15,138.15,0,0,0,14.57-17.42c.78-1,4.79-6.93,12-17.67q13.69-20.4,13.73-39.05c0-13.34-5.05-24.47-15.28-33.41q-14.18-12.24-37.17-12.24a81.5,81.5,0,0,0-38.13,9.2M506.36,49V16.33H411.63V52.14h50.44L419.92,170.83h43.64Z" transform="translate(-12.1 -10.75)"/></g><g id="Layer0_0_MEMBER_0_MEMBER_1_FILL" data-name="Layer0 0 MEMBER 0 MEMBER 1 FILL"><path class="cls-2" d="M597.7,152.05c9.9-10.8,14.9-23.8,14.9-38.9,0-15.9-5-29.1-14.9-39.5s-22.9-15.8-38.7-15.8c-13.2,0-24.6,3.9-34.3,11.8s-15.8,18.1-18.1,31.1a125.08,125.08,0,0,0-1.4,21.1v92.4h19.3V113.55c0-10.7,3-19.6,8.9-26.6,6.3-7.3,14.7-11,25.3-11,10.4,0,18.8,3.6,25.3,10.8q9.3,10.35,9.3,26.1c0,10.7-3.2,19.6-9.5,26.6q-9.9,11.1-25.8,11.1c-9.5,0-18.5-3.3-27-9.8v20.6a57.59,57.59,0,0,0,29,7.3,49.88,49.88,0,0,0,37.7-16.6m134.6-92.2H713.1v106.9h19.2V59.85m-1.4-38.5a11,11,0,0,0-8.3-3.4,11.16,11.16,0,0,0-8.3,3.4,11,11,0,0,0-3.3,8.1,11.94,11.94,0,0,0,3.3,8.5,12,12,0,0,0,16.6.1,12.63,12.63,0,0,0,3.3-8.6,10.86,10.86,0,0,0-3.3-8.1m-94-10.6H617.8v156h19.1v-57.7c0-9,2.2-16.6,6.5-22.6,5-6.6,11.8-9.9,20.6-9.9,16.9,0,25.4,9.5,25.4,28.6v61.6h19.2V108q0-22.2-9.6-35.4c-7.2-10-18-14.9-32.3-14.9-11,0-20.9,4.1-29.7,12.4V10.75m143.1,27.1c7.2,0,12.9,2.4,17.1,7.1s6.4,10.6,6.4,17.9v104h18.9V62.75c0-7.3,2.1-13.3,6.2-17.9s9.9-7.1,17-7.1,12.8,2.4,16.9,7.1,6.3,10.6,6.3,17.9v104h19V66.35c0-13.8-3.5-24.9-10.6-33.4-7.5-9.2-18.1-13.8-31.6-13.8s-24.3,5.5-32.8,16.6c-8.3-11-19.2-16.6-32.8-16.6S756,23.75,748.4,33c-7.1,8.4-10.6,19.6-10.6,33.5v100.3h19v-104c0-7.3,2.1-13.3,6.2-17.9S772.9,37.85,780.1,37.85Z" transform="translate(-12.1 -10.75)"/></g><g id="Layer0_0_MEMBER_0_MEMBER_2_FILL" data-name="Layer0 0 MEMBER 0 MEMBER 2 FILL"><path class="cls-2" d="M175.8,56.15a36.79,36.79,0,0,0-35.3-21.6,35.41,35.41,0,0,0-20.6-18.1,35.9,35.9,0,0,0-27.5,1,38.25,38.25,0,0,0-10.2,6.9c-1.4-.5-2.8-.9-4.1-1.3a40.69,40.69,0,0,0-13-1.1,39.62,39.62,0,0,0-12.8,3.3,37.27,37.27,0,0,0-16.8,14.6,38.48,38.48,0,0,0-6.3,20.8,34.82,34.82,0,0,0-15.4,20.4,35.42,35.42,0,0,0,1.6,25.8,38,38,0,0,0,5.8,9.1,31.61,31.61,0,0,0-.8,9.7,30.46,30.46,0,0,0,10.4,20,33.69,33.69,0,0,0,11.2,6l34.5,55.7c4.4-2.6,9-5.2,13.8-7.6l-32.9-53.1,21.7-9.8,29.9,54.3c4.9-2,9.9-3.9,14.9-5.6l-30.4-55.1,35.8-16.2,22.5,63.3c5.1-1.2,10.4-2.2,15.7-3.1l-23.8-66.7L165.3,98l22.2,74c5.3-.5,10.7-.8,16.1-1l-26.5-88.3a37,37,0,0,0,1.8-13.2,34.06,34.06,0,0,0-3.1-13.3M115,31.35a20,20,0,0,1,11.8,11,26.25,26.25,0,0,1,1.8,6.8,22.56,22.56,0,0,1-.5,6.8,24.64,24.64,0,0,1,5.7-3.8,21,21,0,0,1,27.8,10.5,20.73,20.73,0,0,1-2,20.8L44,135.45a13.06,13.06,0,0,1-6.4-6.7,14.18,14.18,0,0,1-.8-9.5,13.87,13.87,0,0,1,5.3-7.7,19,19,0,0,1-7.2-4.3,22.14,22.14,0,0,1-5.1-6.9,20.46,20.46,0,0,1-.5-16.1,21.07,21.07,0,0,1,11.1-11.8,20.71,20.71,0,0,1,6.9-1.8l-.2-.3a22.3,22.3,0,0,1-.5-17.9,22.32,22.32,0,0,1,12.2-13,23,23,0,0,1,15.5-1.4A23.48,23.48,0,0,1,87,46.45a20.56,20.56,0,0,1,28-15.1Z" transform="translate(-12.1 -10.75)"/><path class="cls-1" d="M56.8,83.15a7.88,7.88,0,0,0-9.9,10.6A7.71,7.71,0,0,0,51.2,98a8,8,0,0,0,6.1-.2,7.71,7.71,0,0,0,4.1-4.4,7,7,0,0,0-.2-6,7.9,7.9,0,0,0-4.4-4.2m39.9-.6a7.39,7.39,0,0,0-6,.2,7.16,7.16,0,0,0-4.1,4.4,7.81,7.81,0,0,0,.2,6,7.41,7.41,0,0,0,4.4,4.1,8,8,0,0,0,6.1-.2,7.41,7.41,0,0,0,4.1-4.4,7.61,7.61,0,0,0-.2-6.1,7.73,7.73,0,0,0-4.5-4m17.7-24.5a7.61,7.61,0,0,0-.2-6.1,7.8,7.8,0,0,0-10.3-3.9,7.71,7.71,0,0,0-4.2,4.3,7.39,7.39,0,0,0,.2,6,7.71,7.71,0,0,0,4.4,4.1,7.61,7.61,0,0,0,6.1-.2A6.68,6.68,0,0,0,114.4,58.05Z" transform="translate(-12.1 -10.75)"/></g></svg>